<svg width="16" height="16" viewBox="0 0 16 16" fill="none" xmlns="http://www.w3.org/2000/svg">
  <!-- Background circle -->
  <circle cx="8" cy="8" r="8" fill="#EC4899"/>
  
  <!-- Letter B simplified for small size -->
  <path d="M5 4h3c0.8 0 1.4 0.3 1.9 0.8s0.6 1.1 0.6 1.9c0 0.5-0.1 0.9-0.4 1.3 0.4 0.4 0.6 0.9 0.6 1.5 0 0.8-0.3 1.4-0.8 1.9s-1.1 0.6-1.9 0.6H5V4z" fill="white"/>
  <path d="M6.5 5.5v1.5h1.5c0.3 0 0.5-0.1 0.7-0.3s0.3-0.4 0.3-0.7-0.1-0.5-0.3-0.7S8.3 5.5 8 5.5h-1.5z" fill="#EC4899"/>
  <path d="M6.5 8.5v2h2c0.3 0 0.5-0.1 0.7-0.3s0.3-0.4 0.3-0.7-0.1-0.5-0.3-0.7S8.8 8.5 8.5 8.5h-2z" fill="#EC4899"/>
</svg>
